<svg xmlns="http://www.w3.org/2000/svg" width="750" height="750" viewBox="0 0 750 750">
  <defs>
    <style>
      .cls-1, .cls-4 {
        fill: #274082;
      }

      .cls-1, .cls-2, .cls-3 {
        fill-rule: evenodd;
      }

      .cls-2 {
        fill: #51ade5;
      }

      .cls-3 {
        fill: #fff;
      }

      .cls-4 {
        font-size: 63px;
        font-family: Garet;
        font-weight: 800;
      }
    </style>
  </defs>
  <g id="Page_1" data-name="Page 1">
    <path id="Path_4" data-name="Path 4" class="cls-1" d="M434.411,312.485l34.943-20.291h0l27.771-16.127L524.9,292.194,434.411,344.74V312.485Z"/>
    <path id="Path_5" data-name="Path 5" class="cls-2" d="M315.617,312.485l-34.945-20.291h0L252.9,276.067l-27.774,16.127,90.494,52.546V312.485Z"/>
    <path id="Path_6" data-name="Path 6" class="cls-1" d="M398.142,290.805v42.739l-23.128,13.429v32.255l44.718-25.967V290.805h-21.59Z"/>
    <path id="Path_7" data-name="Path 7" class="cls-2" d="M351.886,290.805H330.294v62.456l44.72,25.967V346.973l-23.128-13.429V290.805Z"/>
    <path id="Path_8" data-name="Path 8" class="cls-1" d="M398.142,307.805l76.636-44.5L446.9,247.239l-48.76,28.313v32.253Z"/>
    <path id="Path_9" data-name="Path 9" class="cls-2" d="M351.886,275.552l-48.761-28.313-27.876,16.066,76.637,44.5V275.552Z"/>
    <path id="Path_10" data-name="Path 10" class="cls-2" d="M375.334,332.04a2.993,2.993,0,0,1-2.77-1.832,2.921,2.921,0,0,1-.228-1.136V251.884a2.917,2.917,0,0,1,.228-1.136,2.947,2.947,0,0,1,.65-0.963,3.017,3.017,0,0,1,4.24,0,2.963,2.963,0,0,1,.878,2.1v77.188a2.963,2.963,0,0,1-.878,2.1A3.018,3.018,0,0,1,375.334,332.04Z"/>
    <path id="Path_11" data-name="Path 11" class="cls-1" d="M408.308,222.2q0,1.6-.159,3.2t-0.474,3.17q-0.317,1.573-.787,3.108t-1.09,3.018q-0.62,1.482-1.383,2.9t-1.664,2.749q-0.9,1.334-1.928,2.574t-2.173,2.374q-1.144,1.134-2.4,2.152t-2.6,1.909q-1.347.892-2.775,1.648t-2.925,1.37q-1.5.614-3.047,1.08t-3.139.778q-1.588.314-3.2,0.471t-3.232.157q-1.62,0-3.232-.157t-3.2-.471q-1.589-.312-3.139-0.778t-3.047-1.08q-1.5-.613-2.925-1.37t-2.776-1.648q-1.347-.891-2.6-1.909t-2.4-2.152q-1.144-1.134-2.173-2.374t-1.927-2.574q-0.9-1.335-1.664-2.749t-1.383-2.9q-0.621-1.482-1.091-3.018t-0.786-3.108q-0.317-1.573-.475-3.17t-0.159-3.2q0-1.6.159-3.2t0.475-3.17q0.317-1.573.786-3.109t1.091-3.017q0.62-1.482,1.383-2.9t1.664-2.749q0.9-1.334,1.927-2.574t2.173-2.375q1.146-1.134,2.4-2.152t2.6-1.909q1.347-.891,2.776-1.648t2.925-1.37q1.5-.614,3.047-1.079t3.139-.779q1.588-.314,3.2-0.47t3.232-.158q1.62,0,3.232.158t3.2,0.47q1.589,0.314,3.139.779t3.047,1.079q1.5,0.615,2.925,1.37t2.775,1.648q1.347,0.891,2.6,1.909t2.4,2.152q1.146,1.134,2.173,2.375t1.928,2.574q0.9,1.334,1.664,2.749t1.383,2.9q0.62,1.482,1.09,3.017t0.787,3.109q0.315,1.573.474,3.17T408.308,222.2Z"/>
    <path id="Path_12" data-name="Path 12" class="cls-3" d="M357.348,225.165a3.018,3.018,0,0,1-2.12-.869,2.952,2.952,0,0,1-.878-2.1A20.715,20.715,0,0,1,360.5,207.5,21.023,21.023,0,0,1,367.3,203a21.19,21.19,0,0,1,8.03-1.582,3.013,3.013,0,0,1,2.12.87,2.952,2.952,0,0,1,0,4.2,3.013,3.013,0,0,1-2.12.87,15.078,15.078,0,0,0-8.327,2.5,14.8,14.8,0,0,0-6.373,9.446,14.594,14.594,0,0,0-.288,2.9,2.963,2.963,0,0,1-.878,2.1A3.018,3.018,0,0,1,357.348,225.165Z"/>
    <text id="UNIGUIDE" class="cls-4" x="211.762" y="458.193">UNIGUIDE</text>
  </g>
</svg>
